<svg width="17" height="18" viewBox="0 0 17 18" fill="none" xmlns="http://www.w3.org/2000/svg">
<path d="M2.5 13.3333C2.5 12.8731 2.8731 12.5 3.33333 12.5H9.16667C9.6269 12.5 10 12.8731 10 13.3333C10 13.7936 9.6269 14.1667 9.16667 14.1667H3.33333C2.8731 14.1667 2.5 13.7936 2.5 13.3333Z" fill="#F0F2F5"/>
<path d="M11.6667 12.5C11.2064 12.5 10.8333 12.8731 10.8333 13.3333C10.8333 13.7936 11.2064 14.1667 11.6667 14.1667H13.3333C13.7936 14.1667 14.1667 13.7936 14.1667 13.3333C14.1667 12.8731 13.7936 12.5 13.3333 12.5H11.6667Z" fill="#F0F2F5"/>
<path fill-rule="evenodd" clip-rule="evenodd" d="M5 0C5.46024 0 5.83333 0.373096 5.83333 0.833333V1.66667H10.8333V0.833333C10.8333 0.373096 11.2064 0 11.6667 0C12.1269 0 12.5 0.373096 12.5 0.833333V1.66667H13.3333C15.1743 1.66667 16.6667 3.15905 16.6667 5V14.1667C16.6667 16.0076 15.1743 17.5 13.3333 17.5H3.33333C1.49238 17.5 0 16.0076 0 14.1667V5C0 3.15905 1.49238 1.66667 3.33333 1.66667H4.16667V0.833333C4.16667 0.373096 4.53976 0 5 0ZM10.8333 3.33333C10.8333 3.79357 11.2064 4.16667 11.6667 4.16667C12.1269 4.16667 12.5 3.79357 12.5 3.33333H13.3333C14.2538 3.33333 15 4.07953 15 5V5.41667H1.66667V5C1.66667 4.07953 2.41286 3.33333 3.33333 3.33333H4.16667C4.16667 3.79357 4.53976 4.16667 5 4.16667C5.46024 4.16667 5.83333 3.79357 5.83333 3.33333H10.8333ZM15 7.08333H1.66667V14.1667C1.66667 15.0871 2.41286 15.8333 3.33333 15.8333H13.3333C14.2538 15.8333 15 15.0871 15 14.1667V7.08333Z" fill="#F0F2F5"/>
</svg>
