<svg width="65" height="72" viewBox="0 0 65 72" fill="none" xmlns="http://www.w3.org/2000/svg">
<path opacity="0.05" d="M63.8059 44.6067L59.1745 39.9753C59.0573 39.8581 59.0982 39.6619 59.2481 39.5964C60.8837 38.8904 62.4129 37.98 63.8059 36.9032C64.3047 36.5161 64.7845 36.11 65.2451 35.682C66.589 34.4335 67.7694 33.0133 68.7507 31.4541C68.7534 31.4486 68.7561 31.4459 68.7589 31.4405C69.3531 30.4946 69.8765 29.4969 70.3181 28.4583C71.3839 25.9504 71.9782 23.1945 71.9891 20.2996C71.9891 20.2996 71.9891 20.2969 71.9891 20.2941C71.9891 20.2669 71.9891 20.2396 71.9891 20.2123C71.9891 17.3201 71.4085 14.5669 70.3563 12.0564C70.0046 11.2141 69.5984 10.399 69.1432 9.61666C69.1432 9.61121 69.1378 9.60848 69.1378 9.60575C67.0906 6.0893 64.0566 3.22162 60.4175 1.37617C60.4039 1.36799 60.3875 1.35981 60.3739 1.35436C57.558 -0.0658484 52.7985 -0.872724 49.4347 -0.894531C49.3884 -0.894531 50.9286 -0.894531 50.8822 -0.894531C50.8359 -0.894531 50.7923 -0.894531 50.7459 -0.894531H6.28872C2.81589 -0.894531 0 1.92136 0 5.39419V50.2357C0 51.6887 0.1472 53.1089 0.427971 54.48C0.427971 54.4827 0.427971 54.4855 0.427971 54.4909C0.95135 57.0478 1.93814 59.4385 3.29565 61.5674C3.29565 61.5729 3.3011 61.5756 3.30383 61.5811C5.57725 65.1439 8.89198 67.9788 12.8173 69.6553C12.831 69.6607 12.8446 69.6662 12.8582 69.6716C12.8882 69.6853 12.9209 69.6989 12.9509 69.7125C14.9708 70.5603 17.1488 71.1 19.4304 71.2799C19.9838 71.3235 20.5399 71.3454 21.1042 71.3454C24.0154 71.3454 26.7877 70.7566 29.3092 69.6907C31.0892 68.9384 32.7466 67.9488 34.2404 66.7603C34.2431 66.7603 34.2459 66.7576 34.2486 66.7549C34.2758 66.7331 34.3058 66.7113 34.3331 66.6867C34.3413 66.6813 34.3494 66.6731 34.3576 66.6677C36.2903 65.1057 37.9422 63.2112 39.2234 61.0686C41.0389 58.0346 42.1156 54.51 42.2029 50.74V50.7319C42.2056 50.5683 42.2083 50.4048 42.2083 50.2412C42.2083 50.0776 42.2083 49.9141 42.2029 49.7505V42.2133C42.2029 41.8889 42.5954 41.7254 42.8244 41.9544L61.9386 61.0686L66.4118 65.5418C68.4754 67.6054 72 66.1443 72 63.2275V55.1506C72 53.6568 71.4057 52.2229 70.3481 51.1653L63.7949 44.6122L63.8059 44.6067ZM50.874 28.4583H30.7403C29.9525 28.4583 29.3119 29.0962 29.3119 29.8867V50.4129V50.4157C29.053 56.1728 23.2604 59.9019 17.9421 57.6748C15.0689 56.4727 13.1254 53.7004 12.9509 50.5629V13.3157C12.9509 12.6288 13.5097 12.07 14.1966 12.07L31.4082 12.0591C31.4082 12.0591 31.4082 12.0645 31.4054 12.0673C35.0173 12.0673 38.7464 12.0673 42.2083 12.0673C45.4413 12.0673 48.4425 12.0673 50.8958 12.0727C55.3364 12.0782 59 15.7745 59.0164 20.2014C59.0327 24.7401 55.4318 28.3956 50.874 28.461V28.4583Z" fill="#80BBFF"/>
</svg>
