<svg width="15" height="19" viewBox="0 0 15 19" fill="none" xmlns="http://www.w3.org/2000/svg">
<path d="M3.33333 9.16667C3.33333 8.70643 3.70643 8.33333 4.16667 8.33333H10.8333C11.2936 8.33333 11.6667 8.70643 11.6667 9.16667C11.6667 9.6269 11.2936 10 10.8333 10H4.16667C3.70643 10 3.33333 9.6269 3.33333 9.16667Z" fill="#F0F2F5"/>
<path d="M4.16667 12.5C3.70643 12.5 3.33333 12.8731 3.33333 13.3333C3.33333 13.7936 3.70643 14.1667 4.16667 14.1667H10.8333C11.2936 14.1667 11.6667 13.7936 11.6667 13.3333C11.6667 12.8731 11.2936 12.5 10.8333 12.5H4.16667Z" fill="#F0F2F5"/>
<path fill-rule="evenodd" clip-rule="evenodd" d="M3.33333 0C1.49238 0 0 1.49238 0 3.33333V15C0 16.8409 1.49238 18.3333 3.33333 18.3333H11.6667C13.5076 18.3333 15 16.8409 15 15V6.73846C15 5.95867 14.7266 5.20356 14.2274 4.60451L11.3898 1.19939C10.7565 0.43941 9.81833 0 8.82906 0H3.33333ZM1.66667 3.33333C1.66667 2.41286 2.41286 1.66667 3.33333 1.66667H8.33333V4.16667C8.33333 6.00762 9.82572 7.5 11.6667 7.5H13.3333V15C13.3333 15.9205 12.5871 16.6667 11.6667 16.6667H3.33333C2.41286 16.6667 1.66667 15.9205 1.66667 15V3.33333ZM13.0661 5.83333C13.0299 5.77728 12.9901 5.72322 12.947 5.67149L10.1094 2.26636C10.0747 2.22472 10.0382 2.185 10 2.14728V4.16667C10 5.08714 10.7462 5.83333 11.6667 5.83333H13.0661Z" fill="#F0F2F5"/>
</svg>
