<svg width="18" height="17" viewBox="0 0 18 17" fill="none" xmlns="http://www.w3.org/2000/svg">
<path d="M4.58333 1.66667C5.04357 1.66667 5.41667 1.29357 5.41667 0.833333C5.41667 0.373096 5.04357 0 4.58333 0H3.33333C1.49238 0 0 1.49238 0 3.33333V13.3333C0 15.1743 1.49238 16.6667 3.33333 16.6667H4.58333C5.04357 16.6667 5.41667 16.2936 5.41667 15.8333C5.41667 15.3731 5.04357 15 4.58333 15H3.33333C2.41286 15 1.66667 14.2538 1.66667 13.3333L1.66667 3.33333C1.66667 2.41286 2.41286 1.66667 3.33333 1.66667H4.58333Z" fill="white"/>
<path d="M17.2559 8.92259C17.5814 8.59715 17.5814 8.06951 17.2559 7.74408L13.9226 4.41074C13.5972 4.08531 13.0695 4.08531 12.7441 4.41074C12.4186 4.73618 12.4186 5.26382 12.7441 5.58926L14.6548 7.5L5 7.5C4.53976 7.5 4.16667 7.8731 4.16667 8.33333C4.16667 8.79357 4.53976 9.16667 5 9.16667L14.6548 9.16667L12.7441 11.0774C12.4186 11.4028 12.4186 11.9305 12.7441 12.2559C13.0695 12.5814 13.5972 12.5814 13.9226 12.2559L17.2559 8.92259Z" fill="white"/>
</svg>
