<svg width="134" height="26" viewBox="0 0 134 26" fill="none" xmlns="http://www.w3.org/2000/svg">
<path d="M38.5227 5.09042H38.4035L38.3947 5.21932H38.2649V5.20467C37.8622 5.15407 37.4806 5.1285 37.0744 5.1285C35.6157 5.1285 34.4849 5.56076 33.717 6.41952C32.947 7.2807 32.5237 8.59052 32.5237 10.3814V18.3863H29.7463V2.74178H32.5237V5.12557C33.3434 3.45757 34.9479 2.49865 37.0139 2.49862C37.5326 2.49862 38.0298 2.56048 38.4406 2.7203L38.5227 2.75253V5.09042Z" fill="white" stroke="white" stroke-width="0.257966"/>
<path d="M46.3148 2.31661C48.6924 2.31664 50.777 3.41103 51.7952 5.16329V2.74239H54.4437V2.87032H54.5726V18.3869H51.7952V15.965C50.7772 17.7177 48.6927 18.8127 46.3148 18.8127C42.0611 18.8127 38.9566 15.366 38.9564 10.5647C38.9564 5.76313 42.061 2.31661 46.3148 2.31661ZM46.8841 4.94551C45.3887 4.94561 44.1649 5.47941 43.2308 6.51485L43.2298 6.51387C42.3248 7.55043 41.8538 8.91771 41.8538 10.5637C41.8539 12.2096 42.3257 13.576 43.2308 14.6125L43.4095 14.801C44.3191 15.7125 45.4824 16.1817 46.8841 16.1818C48.3802 16.1818 49.6038 15.6473 50.5072 14.6135L50.5081 14.6125C51.4429 13.5764 51.9153 12.2102 51.9154 10.5637C51.9154 8.91704 51.4429 7.55104 50.5081 6.51485L50.5072 6.5129C49.6038 5.47911 48.3801 4.94551 46.8841 4.94551Z" fill="white" stroke="white" stroke-width="0.257966"/>
<path d="M60.2659 2.74185V11.6891C60.2659 13.1366 60.5412 14.1494 61.0862 14.7995C61.6269 15.4444 62.4543 15.7565 63.6165 15.7565C64.9694 15.7565 66.1221 15.3315 66.9348 14.6032C67.7464 13.8758 68.2268 12.8391 68.2268 11.5973V2.74185H71.0061V16.7672C71.0061 19.3888 70.3173 21.424 69.0208 22.8044C67.7233 24.1858 65.8337 24.8941 63.468 24.8942C60.8934 24.8942 58.5159 24.0342 57.0755 22.5426L56.9964 22.4616L57.0677 22.3727L58.5374 20.5475L58.6233 20.4411L58.7249 20.5338C59.9284 21.6353 61.6364 22.2633 63.4075 22.2633C64.956 22.2633 66.1542 21.8008 66.9671 20.8961C67.782 19.9892 68.2277 18.6184 68.2278 16.7672V15.7467C67.2375 17.4483 65.3358 18.3864 63.0169 18.3864C61.2949 18.3863 59.9075 17.8519 58.9514 16.8122C57.9968 15.774 57.4886 14.2487 57.4886 12.2965V2.74185H60.2659Z" fill="white" stroke="white" stroke-width="0.257966"/>
<path d="M81.8794 2.31585C83.6316 2.31593 85.0198 2.86493 85.9682 3.91253C86.915 4.95828 87.4077 6.48336 87.4077 8.40472V18.3871H84.6303V9.0141C84.6303 7.56591 84.3611 6.55358 83.8198 5.90374C83.283 5.25934 82.4571 4.94574 81.2797 4.94574C79.9417 4.94574 78.8038 5.36321 78.0024 6.08734C77.2023 6.81036 76.729 7.8471 76.729 9.10492V18.3871H73.9516V2.74163H76.729V4.9389C77.6945 3.247 79.5686 2.31585 81.8794 2.31585Z" fill="white" stroke="white" stroke-width="0.257966"/>
<path d="M97.2073 2.31661C99.5849 2.31664 101.67 3.41103 102.688 5.16329V2.74239H105.336V2.87032H105.465V18.3869H102.688V15.965C101.67 17.7177 99.5852 18.8127 97.2073 18.8127C92.9537 18.8127 89.8491 15.366 89.8489 10.5647C89.8489 5.76313 92.9536 2.31661 97.2073 2.31661ZM97.7766 4.94551C96.2812 4.94561 95.0575 5.47941 94.1233 6.51485L94.1224 6.51387C93.2173 7.55043 92.7464 8.91771 92.7464 10.5637C92.7464 12.2096 93.2182 13.576 94.1233 14.6125L94.302 14.801C95.2116 15.7125 96.3749 16.1818 97.7766 16.1818C99.2727 16.1818 100.496 15.6473 101.4 14.6135L101.401 14.6125C102.335 13.5764 102.808 12.2102 102.808 10.5637C102.808 8.91704 102.335 7.55104 101.401 6.51485L101.4 6.5129C100.496 5.47911 99.2727 4.94551 97.7766 4.94551Z" fill="white" stroke="white" stroke-width="0.257966"/>
<path d="M116.903 2.74185V12.3581C116.903 13.6107 117.263 14.5614 117.918 15.1999C118.573 15.8388 119.541 16.1822 120.793 16.1823C122.045 16.1823 123.014 15.8388 123.669 15.1999C124.324 14.5614 124.684 13.6105 124.684 12.3581V2.74185H127.461V12.5104C127.461 14.3668 126.797 15.9455 125.625 17.0592C124.454 18.1725 122.785 18.8131 120.792 18.8131C118.799 18.813 117.131 18.1724 115.96 17.0592C114.788 15.9455 114.124 14.3668 114.124 12.5104V2.74185H116.903Z" fill="white" stroke="white" stroke-width="0.257966"/>
<path d="M133.357 2.74185V18.3864H130.579V2.74185H133.357Z" fill="white" stroke="white" stroke-width="0.257966"/>
<path d="M18.6036 13.2666L17.2532 11.9162C17.2191 11.8821 17.231 11.8248 17.2747 11.8058C17.7516 11.5999 18.1974 11.3345 18.6036 11.0205C18.749 10.9077 18.8889 10.7892 19.0232 10.6644C19.4151 10.3004 19.7592 9.88635 20.0453 9.43173C20.0461 9.43014 20.0469 9.42935 20.0477 9.42776C20.221 9.15197 20.3736 8.86108 20.5023 8.55826C20.8131 7.82706 20.9863 7.02353 20.9895 6.17947C20.9895 6.17947 20.9895 6.17867 20.9895 6.17788C20.9895 6.16993 20.9895 6.16198 20.9895 6.15403C20.9895 5.31076 20.8202 4.50803 20.5134 3.77603C20.4109 3.53044 20.2925 3.2928 20.1598 3.0647C20.1598 3.06311 20.1582 3.06231 20.1582 3.06152C19.5613 2.03624 18.6767 1.20013 17.6157 0.662057C17.6117 0.659673 17.6069 0.657289 17.6029 0.655699C16.7819 0.241615 15.3942 0.00635829 14.4135 0C14.3999 0 14.849 0 14.8355 0C14.822 0 14.8093 0 14.7958 0H1.83357C0.821015 0 0 0.821015 0 1.83357V14.9078C0 15.3314 0.0429185 15.7455 0.124782 16.1453C0.124782 16.1461 0.124782 16.1469 0.124782 16.1485C0.277381 16.894 0.565093 17.591 0.960897 18.2117C0.960897 18.2133 0.962487 18.2141 0.963282 18.2157C1.62613 19.2545 2.59259 20.0811 3.73709 20.5699C3.74106 20.5715 3.74503 20.5731 3.74901 20.5746C3.75775 20.5786 3.76729 20.5826 3.77603 20.5866C4.36497 20.8337 5 20.9911 5.66524 21.0436C5.82658 21.0563 5.98872 21.0626 6.15324 21.0626C7.00207 21.0626 7.81037 20.891 8.54555 20.5802C9.06454 20.3608 9.54777 20.0723 9.98332 19.7258C9.98411 19.7258 9.98491 19.725 9.9857 19.7242C9.99365 19.7179 10.0024 19.7115 10.0103 19.7044C10.0127 19.7028 10.0151 19.7004 10.0175 19.6988C10.581 19.2434 11.0626 18.691 11.4362 18.0663C11.9655 17.1817 12.2795 16.154 12.3049 15.0548V15.0525C12.3057 15.0048 12.3065 14.9571 12.3065 14.9094C12.3065 14.8617 12.3065 14.814 12.3049 14.7663V12.5688C12.3049 12.4742 12.4193 12.4265 12.4861 12.4933L18.0591 18.0663L19.3634 19.3705C19.965 19.9722 20.9927 19.5462 20.9927 18.6958V16.3408C20.9927 15.9053 20.8194 15.4872 20.5111 15.1788L18.6004 13.2682L18.6036 13.2666ZM14.8331 8.55826H8.96281C8.73312 8.55826 8.54634 8.74424 8.54634 8.97473V14.9595V14.9603C8.47084 16.6389 6.78192 17.7261 5.23129 17.0768C4.39358 16.7263 3.8269 15.918 3.77603 15.0032V4.14322C3.77603 3.94294 3.93896 3.78001 4.13925 3.78001L9.15753 3.77683C9.15753 3.77683 9.15753 3.77842 9.15674 3.77921C10.2098 3.77921 11.2971 3.77921 12.3065 3.77921C13.2491 3.77921 14.1242 3.77921 14.8395 3.7808C16.1342 3.78239 17.2024 4.86012 17.2071 6.15085C17.2119 7.47417 16.162 8.53998 14.8331 8.55906V8.55826Z" fill="white"/>
</svg>
