<svg width="21" height="22" viewBox="0 0 21 22" fill="none" xmlns="http://www.w3.org/2000/svg">
<path d="M18.6036 13.2666L17.2532 11.9162C17.2191 11.8821 17.231 11.8248 17.2747 11.8058C17.7516 11.5999 18.1974 11.3345 18.6036 11.0205C18.749 10.9077 18.8889 10.7892 19.0232 10.6644C19.4151 10.3004 19.7592 9.88635 20.0453 9.43173C20.0461 9.43014 20.0469 9.42935 20.0477 9.42776C20.221 9.15197 20.3736 8.86108 20.5023 8.55826C20.8131 7.82706 20.9863 7.02353 20.9895 6.17947C20.9895 6.17947 20.9895 6.17867 20.9895 6.17788C20.9895 6.16993 20.9895 6.16198 20.9895 6.15403C20.9895 5.31076 20.8202 4.50803 20.5134 3.77603C20.4109 3.53044 20.2925 3.2928 20.1598 3.0647C20.1598 3.06311 20.1582 3.06231 20.1582 3.06152C19.5613 2.03624 18.6767 1.20013 17.6157 0.662057C17.6117 0.659673 17.6069 0.657289 17.6029 0.655699C16.7819 0.241615 15.3942 0.00635829 14.4135 0C14.3999 0 14.849 0 14.8355 0C14.822 0 14.8093 0 14.7958 0H1.83357C0.821015 0 0 0.821015 0 1.83357V14.9078C0 15.3314 0.0429185 15.7455 0.124782 16.1453C0.124782 16.1461 0.124782 16.1469 0.124782 16.1485C0.277381 16.894 0.565093 17.591 0.960897 18.2117C0.960897 18.2133 0.962487 18.2141 0.963282 18.2157C1.62613 19.2545 2.59259 20.0811 3.73709 20.5699C3.74106 20.5715 3.74503 20.5731 3.74901 20.5746C3.75775 20.5786 3.76729 20.5826 3.77603 20.5866C4.36497 20.8337 5 20.9911 5.66524 21.0436C5.82658 21.0563 5.98872 21.0626 6.15324 21.0626C7.00207 21.0626 7.81037 20.891 8.54555 20.5802C9.06454 20.3608 9.54777 20.0723 9.98332 19.7258C9.98411 19.7258 9.98491 19.725 9.9857 19.7242C9.99365 19.7179 10.0024 19.7115 10.0103 19.7044C10.0127 19.7028 10.0151 19.7004 10.0175 19.6988C10.581 19.2434 11.0626 18.691 11.4362 18.0663C11.9655 17.1817 12.2795 16.154 12.3049 15.0548V15.0525C12.3057 15.0048 12.3065 14.9571 12.3065 14.9094C12.3065 14.8617 12.3065 14.814 12.3049 14.7663V12.5688C12.3049 12.4742 12.4193 12.4265 12.4861 12.4933L18.0591 18.0663L19.3634 19.3705C19.965 19.9722 20.9927 19.5462 20.9927 18.6958V16.3408C20.9927 15.9053 20.8194 15.4872 20.5111 15.1788L18.6004 13.2682L18.6036 13.2666ZM14.8331 8.55826H8.96281C8.73312 8.55826 8.54634 8.74424 8.54634 8.97473V14.9595V14.9603C8.47084 16.6389 6.78192 17.7261 5.23129 17.0768C4.39358 16.7263 3.8269 15.918 3.77603 15.0032V4.14322C3.77603 3.94294 3.93896 3.78001 4.13925 3.78001L9.15753 3.77683C9.15753 3.77683 9.15753 3.77842 9.15674 3.77921C10.2098 3.77921 11.2971 3.77921 12.3065 3.77921C13.2491 3.77921 14.1242 3.77921 14.8395 3.7808C16.1342 3.78239 17.2024 4.86012 17.2071 6.15085C17.2119 7.47417 16.162 8.53998 14.8331 8.55906V8.55826Z" fill="white"/>
</svg>
