<svg width="18" height="17" viewBox="0 0 18 17" fill="none" xmlns="http://www.w3.org/2000/svg">
<path fill-rule="evenodd" clip-rule="evenodd" d="M8.78608 0L3.58035 0.325358C2.34058 0.402843 1.24674 1.16328 0.742243 2.2984L0.287319 3.32198C-0.203378 4.42605 -0.0582313 5.70922 0.666691 6.67578L0.881935 6.96277L1.17846 13.4863C1.25938 15.2666 2.72626 16.6683 4.50835 16.6683H13.0638C14.8459 16.6683 16.3128 15.2666 16.3937 13.4863L16.6848 7.08208C17.4776 6.34097 17.7697 5.18486 17.3892 4.13831L16.7954 2.50549C16.3423 1.2595 15.1939 0.40049 13.8707 0.317789L8.78608 0ZM2.84341 13.4106L2.59105 7.85887C3.30488 7.94295 4.04167 7.77722 4.66499 7.36167L4.75155 7.30397C5.22217 6.99022 5.82483 6.9527 6.33073 7.20565L7.29536 7.68797C8.23379 8.15718 9.33836 8.15718 10.2768 7.68797L11.2414 7.20565C11.7473 6.9527 12.35 6.99022 12.8206 7.30397L12.9072 7.36167C13.5305 7.77722 14.2673 7.94295 14.9811 7.85887L14.7287 13.4106C14.6883 14.3008 13.9548 15.0016 13.0638 15.0016H11.3584L11.5269 12.9803C11.6605 11.3768 10.3951 10.0016 8.78608 10.0016C7.17705 10.0016 5.91168 11.3768 6.0453 12.9803L6.21374 15.0016H4.50835C3.61731 15.0016 2.88387 14.3008 2.84341 13.4106ZM13.8317 5.97492C14.3087 6.29293 14.9301 6.29293 15.4072 5.97492C15.8212 5.69888 15.9929 5.17555 15.8228 4.70788L15.2291 3.07506C15.0025 2.45207 14.4283 2.02256 13.7667 1.98121L8.78608 1.66992L3.68432 1.98878C3.06443 2.02752 2.51751 2.40774 2.26526 2.9753L1.81034 3.99888C1.56499 4.55092 1.63756 5.1925 2.00002 5.67578L2.27359 6.04053C2.73356 6.29118 3.29891 6.26931 3.74049 5.97492L3.82705 5.91722C4.79532 5.2717 6.03523 5.19451 7.07609 5.71494L8.04072 6.19725C8.50993 6.43186 9.06222 6.43186 9.53143 6.19725L10.4961 5.71494C11.5369 5.19451 12.7768 5.2717 13.7451 5.91722L13.8317 5.97492ZM9.86594 12.8419L9.68597 15.0016H7.88619L7.70621 12.8419C7.65356 12.2101 8.15212 11.6683 8.78608 11.6683C9.42003 11.6683 9.91859 12.2101 9.86594 12.8419Z" fill="#F0F2F5"/>
</svg>
