<svg width="26" height="26" viewBox="0 0 26 26" fill="none" xmlns="http://www.w3.org/2000/svg">
<path d="M6.45839 16.1458C5.86391 16.1458 5.382 15.6639 5.382 15.0694C5.382 14.475 5.86391 13.9931 6.45839 13.9931C7.05286 13.9931 7.53478 14.475 7.53478 15.0694C7.53478 15.6639 7.05286 16.1458 6.45839 16.1458Z" fill="#667185"/>
<path d="M9.68755 15.0694C9.68755 15.6639 10.1695 16.1458 10.7639 16.1458C11.3584 16.1458 11.8403 15.6639 11.8403 15.0694C11.8403 14.475 11.3584 13.9931 10.7639 13.9931C10.1695 13.9931 9.68755 14.475 9.68755 15.0694Z" fill="#667185"/>
<path d="M15.0695 16.1458C14.475 16.1458 13.9931 15.6639 13.9931 15.0694C13.9931 14.475 14.475 13.9931 15.0695 13.9931C15.664 13.9931 16.1459 14.475 16.1459 15.0694C16.1459 15.6639 15.664 16.1458 15.0695 16.1458Z" fill="#667185"/>
<path fill-rule="evenodd" clip-rule="evenodd" d="M22.0424 14.4753L19.3712 14.8092C19.3738 14.8956 19.3751 14.9824 19.3751 15.0694C19.3751 19.8252 15.5197 23.6806 10.7639 23.6806C10.0525 23.6806 9.35986 23.5941 8.69648 23.4305L4.0692 22.8521C2.93113 22.7098 2.14021 21.649 2.32876 20.5176L2.6126 18.8146L2.40289 17.1369C2.23933 16.4735 2.15283 15.7809 2.15283 15.0694C2.15283 10.3137 6.00816 6.45833 10.7639 6.45833C10.8863 6.45833 11.008 6.46089 11.1291 6.46594C12.0136 3.95405 14.4064 2.15278 17.2223 2.15278C20.7891 2.15278 23.6806 5.04427 23.6806 8.61111C23.6806 9.13794 23.6173 9.6514 23.4974 10.1437L23.3554 11.2799L23.5508 12.4521C23.7142 13.4326 23.0287 14.352 22.0424 14.4753ZM17.2223 4.30555C19.6002 4.30555 21.5278 6.23322 21.5278 8.61111C21.5278 8.98143 21.4813 9.33934 21.3944 9.67997L21.3777 9.74553L21.2119 11.0713C21.191 11.239 21.1944 11.409 21.2222 11.5758L21.3581 12.3913L19.0395 12.6811C18.2367 9.89418 16.0641 7.68757 13.2976 6.83713C13.9737 5.34381 15.4778 4.30555 17.2223 4.30555ZM10.7639 8.61111C7.1971 8.61111 4.30561 11.5026 4.30561 15.0694C4.30561 15.6241 4.37528 16.1609 4.50581 16.6723L4.52254 16.7379L4.75119 18.5671C4.77539 18.7607 4.77139 18.9567 4.73931 19.1492L4.47529 20.7333L9.0955 21.3108L9.16106 21.3276C9.67245 21.4581 10.2093 21.5278 10.7639 21.5278C14.3308 21.5278 17.2223 18.6363 17.2223 15.0694C17.2223 11.5026 14.3308 8.61111 10.7639 8.61111Z" fill="#667185"/>
</svg>
