<svg width="18" height="23" viewBox="0 0 18 23" fill="none" xmlns="http://www.w3.org/2000/svg">
<path fill-rule="evenodd" clip-rule="evenodd" d="M9.94226 1.07639C9.94226 0.481916 9.46034 0 8.86587 0C8.2714 0 7.78948 0.481916 7.78948 1.07639V1.69086C4.13824 2.21298 1.33115 5.35206 1.33115 9.14813L1.33115 13.4541C1.33115 13.4541 1.33116 13.4539 1.33115 13.4541C1.33104 13.4562 1.33031 13.4706 1.32565 13.4988C1.32004 13.5327 1.31009 13.5789 1.29367 13.6382C1.26038 13.7584 1.2074 13.9081 1.13338 14.0851C0.984989 14.4399 0.77578 14.8484 0.544404 15.2606C0.109386 16.0355 -0.109891 16.9589 0.0547305 17.8371C0.228335 18.7632 0.824429 19.5708 1.8425 19.9584C2.75195 20.3047 3.96252 20.6213 5.56121 20.8099C5.59925 20.8428 5.64423 20.8806 5.6959 20.9219C5.85767 21.0513 6.08879 21.219 6.38088 21.386C6.96059 21.7172 7.81771 22.066 8.86587 22.066C9.91403 22.066 10.7712 21.7172 11.3509 21.386C11.643 21.219 11.8741 21.0513 12.0358 20.9219C12.0875 20.8806 12.1325 20.8428 12.1705 20.8099C13.7692 20.6213 14.9798 20.3047 15.8892 19.9584C16.9073 19.5708 17.5034 18.7632 17.677 17.8371C17.8416 16.9589 17.6224 16.0355 17.1873 15.2606C16.956 14.8484 16.7468 14.4399 16.5984 14.0851C16.5243 13.9081 16.4714 13.7584 16.4381 13.6382C16.4216 13.5789 16.4117 13.5327 16.4061 13.4988C16.4014 13.4706 16.4007 13.4564 16.4006 13.4544C16.4006 13.4542 16.4006 13.4544 16.4006 13.4544L16.4006 13.4453V9.14864C16.4006 5.35266 13.5936 2.21307 9.94226 1.69087V1.07639ZM3.48393 9.14813C3.48393 6.17602 5.89325 3.76736 8.86587 3.76736C11.8384 3.76736 14.2478 6.17642 14.2478 9.14864V13.4549C14.2478 13.9532 14.4345 14.4906 14.6123 14.9156C14.8054 15.3774 15.0584 15.866 15.3101 16.3144C15.5549 16.7504 15.6132 17.1624 15.5611 17.4404C15.5179 17.6706 15.4029 17.84 15.1232 17.9466C13.9662 18.3871 12.0132 18.8368 8.86587 18.8368C5.71859 18.8368 3.76551 18.3871 2.60855 17.9466C2.32884 17.84 2.2138 17.6706 2.17065 17.4404C2.11852 17.1624 2.17688 16.7504 2.42163 16.3144C2.67333 15.866 2.92639 15.3774 3.11948 14.9156C3.29722 14.4906 3.48393 13.9532 3.48393 13.4549V9.14813Z" fill="#667185"/>
</svg>
